inDegrees=no
num_controls=7
num_derivatives=13
num_iterations=214
num_multipliers=7
num_parameters=0
num_slacks=7
num_states=26
objective=5.566920
objective_accelerations=0.444009
objective_balance=0.022661
objective_effort=0.472645
objective_height=4.531228
objective_ligament=0.096376
solver_duration=2334.770333
status=Solve_Succeeded
success=true
DataType=double
version=3
OpenSimVersion=4.4-2022-07-23-0e9fedc
endheader
time	/jointset/ground_pelvis/pelvis_tilt/value	/jointset/ground_pelvis/pelvis_tx/value	/jointset/ground_pelvis/pelvis_ty/value	/jointset/hip_l/hip_flexion_l/value	/jointset/hip_l/hip_adduction_l/value	/jointset/hip_l/hip_rotation_l/value	/jointset/back/lumbar_extension/value	/jointset/patellofemoral_l/patellar_flexion_l/value	/jointset/knee_l/knee_flexion_l/value	/jointset/knee_l/knee_adduction_l/value	/jointset/knee_l/knee_rotation_l/value	/jointset/ankle_l/ankle_angle_l/value	/jointset/subtalar_l/subtalar_angle_l/value	/jointset/ground_pelvis/pelvis_tilt/speed	/jointset/ground_pelvis/pelvis_tx/speed	/jointset/ground_pelvis/pelvis_ty/speed	/jointset/hip_l/hip_flexion_l/speed	/jointset/hip_l/hip_adduction_l/speed	/jointset/hip_l/hip_rotation_l/speed	/jointset/back/lumbar_extension/speed	/jointset/patellofemoral_l/patellar_flexion_l/speed	/jointset/knee_l/knee_flexion_l/speed	/jointset/knee_l/knee_adduction_l/speed	/jointset/knee_l/knee_rotation_l/speed	/jointset/ankle_l/ankle_angle_l/speed	/jointset/subtalar_l/subtalar_angle_l/speed	/forceset/tau_hip_flexion_l	/forceset/tau_hip_adduction_l	/forceset/tau_hip_rotation_l	/forceset/tau_knee_flexion_l	/forceset/tau_ankle_angle_l	/forceset/tau_subtalar_angle_l	/forceset/tau_lumbar_extension	lambda_cid13_p0	lambda_cid13_p1	lambda_cid13_p2	lambda_cid13_p3	lambda_cid13_p4	lambda_cid13_p5	lambda_cid14_p0	/jointset/ground_pelvis/pelvis_tilt/accel	/jointset/ground_pelvis/pelvis_tx/accel	/jointset/ground_pelvis/pelvis_ty/accel	/jointset/hip_l/hip_flexion_l/accel	/jointset/hip_l/hip_adduction_l/accel	/jointset/hip_l/hip_rotation_l/accel	/jointset/back/lumbar_extension/accel	/jointset/patellofemoral_l/patellar_flexion_l/accel	/jointset/knee_l/knee_flexion_l/accel	/jointset/knee_l/knee_adduction_l/accel	/jointset/knee_l/knee_rotation_l/accel	/jointset/ankle_l/ankle_angle_l/accel	/jointset/subtalar_l/subtalar_angle_l/accel	gamma_cid13_p0	gamma_cid13_p1	gamma_cid13_p2	gamma_cid13_p3	gamma_cid13_p4	gamma_cid13_p5	gamma_cid14_p0
0	-0.03679432278710625	0.05666521327808857	0.9203420930224352	0.3085811930696054	-0.2956324874011735	-0.3014295398520758	-0.3879500408040475	0.2499276582270894	0.249927658227084	-0.1745329251994329	-0.1743586388301616	-0.0008036543073733089	0.0004436040864670813	0	0	0	0	0	0	0	0	0	0	0	0	0	0.05875464004672801	-0.03587077464202505	-0.0169671579948712	-0.2191598972361778	0.1499359691600071	-0.009817834686409682	0.01169286865357925	4.39335214636063	0.6007810094805631	2.755396342761653	22.09888749522826	-627.2958523435968	-73.15830013254865	-23.19104654699404	-1.145386891403263	-2.175582062397666	-0.8602800673806257	8.808188467772091	-0.657327883508027	2.789265578404044	-7.024167999910303	7.968765112491998	7.968765112491976	1.191284111466196	-0.09384268962350396	0.7508538728311163	-0.4558654972379374	6.930068527307012e-09	1.096978538138763e-07	3.461112229087197e-08	-1.205740240167691e-08	1.042909272800819e-07	2.068624988558217e-08	3.730566348810431e-09
0.01	-0.03684793920207548	0.05655808926180201	0.9203000281845299	0.3090105982746534	-0.29566556544975	-0.3012896555673876	-0.388299726185146	0.2503181021922423	0.250318102192238	-0.1744766450338149	-0.1743605484246104	-0.0007673160310674829	0.0004201698889124675	-0.01066716399575908	-0.02127789222058521	-0.008377790008121097	0.0854220247888015	-0.006582931901657953	0.02785284431709338	-0.06945721334146192	0.07773302195371753	0.07773302195371684	0.01119965216176854	-0.0003708909238261402	0.007298696808779696	-0.004640960255072013	0.05395619491928828	-0.0426204887690091	-0.01645325968167591	-0.2163170813649748	0.1457714121151156	-0.0008335883950540001	0.01655640430528368	3.298518146034485	-3.048717996256506	3.26793636984238	20.9878636357012	-629.8862696241252	-80.38965843531034	-23.19558858339566	-1.018969147242186	-2.081858558230592	-0.8212309734093927	8.340353206726773	-0.6538959149835719	2.764691882436642	-6.834518569274914	7.622204329274953	7.622204329274856	1.075645616594794	-0.007055543521238853	0.7240373256394446	-0.4613510256057061	-1.494855147463462e-08	1.080264748123735e-07	8.983443308955459e-08	9.945635836306497e-09	1.16549454830089e-08	-1.159773255873483e-08	-2.567011174307069e-09
0.02	-0.03700654485572363	0.05624259317204085	0.9201752449453672	0.310280452472043	-0.2957634968316404	-0.3008749632347124	-0.3893295878132625	0.251475203095423	0.2514752030954227	-0.1743100928967805	-0.1743658355782509	-0.0006570588385263196	0.0003516981416143443	-0.02099784773469012	-0.04167441469491939	-0.01654368025150556	0.1680897984693059	-0.01297066666287008	0.05496160959717212	-0.1360352494033338	0.1533313876059682	0.1533313876059669	0.02205289824604075	-0.0006755118380157824	0.01478378324707969	-0.009007509948699824	0.0491577497918341	-0.04937020289599892	-0.01593936136846903	-0.2134742654937837	0.1416068550702198	0.008150657896294163	0.02141993995698312	2.265185056429988	-6.707053115269526	3.779677491097418	19.81710253033168	-631.5320967125454	-87.54385263772821	-23.20895016894785	-1.078090840037503	-1.999308113147591	-0.8179001144333004	8.257338246112688	-0.6182884554188549	2.640449771001107	-6.448332543992219	7.541833852198639	7.541833852198643	1.122002895966953	-0.08058868769622528	0.7881317987350308	-0.400983384949139	-3.682717147657625e-08	1.063550958108707e-07	1.450577438882372e-07	3.19486740742899e-08	-8.098103631406405e-08	-4.388171500305184e-08	-8.86458869742457e-09
0.03	-0.03726693158271929	0.05572745347347444	0.9199696615481261	0.312363620555374	-0.2959242091729823	-0.3001932912834264	-0.3910107447465744	0.2533777049183555	0.2533777049183558	-0.1740366553406139	-0.1743741412968666	-0.0004711852573063068	0.0002410000605124855	-0.03101660179143437	-0.06121488662251739	-0.02455398229867045	0.2480948790549813	-0.01913326851198193	0.08124622765265706	-0.1997324813848293	0.2268132500723049	0.2268132500723041	0.03256831233554331	-0.0009707481165596895	0.02240538443904259	-0.01308633980107703	0.04347560380784932	-0.04430121975745681	-0.01538805286669124	-0.2097988862634905	0.1398157148142781	0.006291971604083287	0.02675244462954546	1.578195603190617	-5.826155329931558	3.692485763974852	19.10211408390416	-633.0709442467383	-84.93095614272902	-23.23059376568807	-0.9543374565782	-1.910614494907524	-0.7897592856528931	7.804745894299025	-0.6094982005630921	2.603466704525061	-6.260870143858193	7.198005206035706	7.198005206035764	1.006396233446161	-0.001736093014258372	0.7513432992797273	-0.4045013317662134	-5.354156180696564e-08	9.476181913290943e-08	1.886607383082541e-07	4.80905205469717e-08	-1.548512176769063e-07	-7.085781095793284e-08	-1.472983454660979e-08
0.04	-0.03762561980390436	0.05502106950316332	0.9196845423232545	0.3152333700304583	-0.296145397962996	-0.2992525733752441	-0.3933149643234283	0.2560043539183893	0.2560043539183892	-0.1736600465299489	-0.1743849483772814	-0.0002086618601962221	9.087997160999444e-05	-0.04065814657156758	-0.07992326904386098	-0.0324508457776304	0.3254060768208167	-0.02506595639732266	0.1067708009762568	-0.2606477781115039	0.2981608230260224	0.2981608230260221	0.04268714914521599	-0.001175784198335833	0.03011374642511633	-0.01689191150882294	0.03779345782385464	-0.03923223661891823	-0.01483674436492754	-0.2061235070332017	0.1380245745583341	0.004433285311868186	0.03208494930210359	0.9480694070050034	-4.952617412976726	3.603501268460903	18.32430071342302	-633.7466553558683	-82.24429793810639	-23.25985714574661	-1.002648984715149	-1.83289021189683	-0.7952124007923151	7.718561682144694	-0.5723056626646242	2.488440824624053	-5.891945493027948	7.11497594967483	7.114975949674833	1.042687440001003	-0.06254864834269225	0.8054839575570618	-0.3463317560229194	-7.014947317505499e-08	8.296396724512423e-08	2.320241385761336e-07	6.411151770490501e-08	-2.283344753194551e-07	-9.772446595426878e-08	-2.058616634066238e-08
